<?xml version="1.0" standalone="no"?><!DOCTYPE svg PUBLIC "-//W3C//DTD SVG 1.1//EN" "http://www.w3.org/Graphics/SVG/1.1/DTD/svg11.dtd"><svg t="1639382302614" class="icon" viewBox="0 0 1024 1024" version="1.1" xmlns="http://www.w3.org/2000/svg" p-id="6846" xmlns:xlink="http://www.w3.org/1999/xlink" width="200" height="200"><defs><style type="text/css"></style></defs><path d="M872.626087 0 151.373913 0C69.008696 0 0 69.008696 0 151.373913l0 719.026087C0 954.991304 69.008696 1024 151.373913 1024l719.026087 0c84.591304 0 151.373913-69.008696 151.373913-151.373913L1021.773913 151.373913C1024 69.008696 954.991304 0 872.626087 0zM151.373913 82.365217l719.026087 0c37.843478 0 69.008696 31.165217 69.008696 69.008696l0 456.347826L456.347826 313.878261c-37.843478-22.26087-82.365217-31.165217-126.886957-20.034783-42.295652 11.130435-80.13913 37.843478-102.4 75.686957L82.365217 596.591304l0-445.217391C82.365217 113.530435 113.530435 82.365217 151.373913 82.365217zM872.626087 941.634783 151.373913 941.634783c-37.843478 0-69.008696-31.165217-69.008696-69.008696l0-111.304348 215.930435-347.269565c11.130435-17.808696 28.93913-31.165217 48.973913-35.617391 20.034783-4.452174 42.295652-2.226087 60.104348 8.904348l529.808696 325.008696 0 162.504348C941.634783 910.469565 910.469565 941.634783 872.626087 941.634783zM776.904348 338.365217c42.295652 0 75.686957-33.391304 75.686957-75.686957 0-42.295652-33.391304-75.686957-75.686957-75.686957-42.295652 0-75.686957 33.391304-75.686957 75.686957C698.991304 304.973913 734.608696 338.365217 776.904348 338.365217z" p-id="6847" fill="#8a8a8a"></path></svg>