<?xml version="1.0" standalone="no"?><!DOCTYPE svg PUBLIC "-//W3C//DTD SVG 1.1//EN" "http://www.w3.org/Graphics/SVG/1.1/DTD/svg11.dtd"><svg t="1639383412826" class="icon" viewBox="0 0 1024 1024" version="1.1" xmlns="http://www.w3.org/2000/svg" p-id="4787" xmlns:xlink="http://www.w3.org/1999/xlink" width="200" height="200"><defs><style type="text/css"></style></defs><path d="M511.1 993.8c-64.8 0-127.8-12.7-187-37.8-57.2-24.2-108.6-58.8-152.7-102.9-44.1-44.1-78.7-95.5-102.9-152.7-25.1-59.3-37.8-122.2-37.8-187 0-52.2 8.3-103.5 24.7-152.6 6.1-18.3 26-28.2 44.3-22.1 18.3 6.1 28.2 26 22.1 44.3-14 41.9-21.1 85.7-21.1 130.4 0 226.3 184.1 410.4 410.4 410.4 226.3 0 410.4-184.1 410.4-410.4S737.4 103 511.1 103c-80.8 0-159 23.5-226.1 67.9-16.1 10.7-37.8 6.2-48.5-9.9-10.7-16.1-6.2-37.8 9.9-48.5C325 60.5 416.5 33 511.1 33c64.8 0 127.8 12.7 187 37.8 57.2 24.2 108.6 58.8 152.7 102.9 44.1 44.1 78.7 95.5 102.9 152.7 25.1 59.3 37.8 122.2 37.8 187s-12.7 127.8-37.8 187C929.6 757.6 895 809 850.8 853.1S755.3 931.8 698.1 956c-59.2 25.1-122.1 37.8-187 37.8z" fill="#8a8a8a" p-id="4788"></path><path d="M154 238.6m-39.8 0a39.8 39.8 0 1 0 79.6 0 39.8 39.8 0 1 0-79.6 0Z" fill="#8a8a8a" p-id="4789"></path><path d="M314.7 440.6c-18.6-2.1-32.2-19-30.1-37.6l7.1-64.3c2.1-18.6 19-32.2 37.6-30.1 18.6 2.1 32.2 19 30.1 37.6l-7.1 64.3c-2 18.6-18.9 32.1-37.6 30.1zM610.2 478.8c-18.6-2.1-32.2-19-30.1-37.6l7.1-64.3c2.1-18.6 19-32.2 37.6-30.1 18.6 2.1 32.2 19 30.1 37.6l-7.1 64.3c-2.1 18.6-19 32.2-37.6 30.1zM528.9 608.8c-7.5 2-54 9.2-106.5 2.6s-74.6-20.5-79.1-23.1c-8.1-4.8-16-9.8-14.9-19.5 1.1-9.7 7.1-19.6 18.8-15.8 11.7 3.8 31.4 19.4 81.3 25.4s92.1-4 104.3-4.9 16 9.8 14.9 19.5c-1.1 9.7-11.3 13.8-18.8 15.8z" fill="#8a8a8a" p-id="4790"></path><path d="M467.3 614.2c-13.3 0-28.7-0.7-44.9-2.7-21.6-2.7-40.6-6.9-56.4-12.6-12.6-4.5-19.6-8.7-22.2-10.2-0.2-0.1-0.3-0.2-0.5-0.3-4.1-2.4-8.1-4.9-10.9-7.9-3.2-3.4-4.5-7.3-4-11.7 0.7-6.7 3.6-12.2 7.7-14.9 3.2-2.1 6.9-2.4 11.2-1 2.9 0.9 6.2 2.6 10.4 4.6 12.4 6.1 33.2 16.3 70.8 20.8 39.5 4.7 74.4-0.6 93.1-3.4 4.9-0.7 8.7-1.3 11.2-1.5 4.5-0.3 8.1 0.9 10.8 3.6 3.4 3.5 4.9 9.5 4.2 16-0.8 7.5-7.2 12.8-18.9 15.9v-0.1 0.1c-4.2 1.1-17.8 3.3-36.4 4.5-6.9 0.4-15.5 0.8-25.2 0.8z m-125-62c-2.3 0-4.4 0.6-6.2 1.8-4 2.6-6.9 8.1-7.6 14.8-1.1 10 7.7 15.3 14.9 19.5 0.1 0.1 0.3 0.2 0.5 0.3 22.9 13.6 55.4 19.9 78.6 22.8 27.9 3.5 53.6 3 70.1 1.9 19.2-1.2 32.8-3.6 36.4-4.5 11.6-3.1 17.9-8.4 18.7-15.7 0.7-6.5-0.8-12.5-4.2-15.9-2.6-2.7-6.2-3.9-10.7-3.5-2.5 0.2-6.3 0.8-11.2 1.5-18.7 2.9-53.6 8.2-93.1 3.4-37.6-4.5-58.4-14.7-70.9-20.8-4.2-2.1-7.5-3.7-10.4-4.6-1.7-0.7-3.3-1-4.9-1z" fill="#8a8a8a" p-id="4791"></path><path d="M371.6 576.2s-79 40-78.8 118.9c0.1 60.9 64.1 80 82.9 80 44.8 0 70.2-20.1 84-69.8 13.8-49.7 22.3-85.1 48.9-106.1 26.6-20.9-137-23-137-23z" fill="#8a8a8a" p-id="4792"></path></svg>